<svg id='Calculator_24' width='24' height='24' viewBox='0 0 24 24' xmlns='http://www.w3.org/2000/svg' xmlns:xlink='http://www.w3.org/1999/xlink'><rect width='24' height='24' stroke='none' fill='#000000' opacity='0'/>


<g transform="matrix(0.83 0 0 0.83 12 12)" >
<path style="stroke: none; stroke-width: 1; stroke-dasharray: none; stroke-linecap: butt; stroke-dashoffset: 0; stroke-linejoin: miter; stroke-miterlimit: 4; fill: rgb(0,0,0); fill-rule: nonzero; opacity: 1;" transform=" translate(-15.5, -15)" d="M 23 3 L 8 3 C 6.895 3 6 3.895 6 5 L 6 25 C 6 26.105 6.895 27 8 27 L 23 27 C 24.105 27 25 26.105 25 25 L 25 5 C 25 3.895 24.105 3 23 3 z M 10.5 16 C 11.328 16 12 16.672 12 17.5 C 12 18.328 11.328 19 10.5 19 C 9.672 19 9 18.328 9 17.5 C 9 16.672 9.672 16 10.5 16 z M 9 12.5 C 9 11.672 9.672 11 10.5 11 C 11.328 11 12 11.672 12 12.5 C 12 13.328 11.328 14 10.5 14 C 9.672 14 9 13.328 9 12.5 z M 15.5 24 L 10.5 24 C 9.672 24 9 23.328 9 22.5 C 9 21.672 9.672 21 10.5 21 L 15.5 21 C 16.328 21 17 21.672 17 22.5 C 17 23.328 16.328 24 15.5 24 z M 15.5 19 C 14.672 19 14 18.328 14 17.5 C 14 16.672 14.672 16 15.5 16 C 16.328 16 17 16.672 17 17.5 C 17 18.328 16.328 19 15.5 19 z M 15.5 14 C 14.672 14 14 13.328 14 12.5 C 14 11.672 14.672 11 15.5 11 C 16.328 11 17 11.672 17 12.5 C 17 13.328 16.328 14 15.5 14 z M 20.5 24 C 19.672 24 19 23.328 19 22.5 C 19 21.672 19.672 21 20.5 21 C 21.328 21 22 21.672 22 22.5 C 22 23.328 21.328 24 20.5 24 z M 20.5 19 C 19.672 19 19 18.328 19 17.5 C 19 16.672 19.672 16 20.5 16 C 21.328 16 22 16.672 22 17.5 C 22 18.328 21.328 19 20.5 19 z M 20.5 14 C 19.672 14 19 13.328 19 12.5 C 19 11.672 19.672 11 20.5 11 C 21.328 11 22 11.672 22 12.5 C 22 13.328 21.328 14 20.5 14 z M 22 9 L 9 9 L 9 6 L 22 6 L 22 9 z" stroke-linecap="round" />
</g>
</svg>